<?xml version="1.0" encoding="utf-8"?>
<!-- Generator: Adobe Illustrator 27.8.1, SVG Export Plug-In . SVG Version: 6.00 Build 0)  -->
<svg version="1.1" id="Layer_1" xmlns="http://www.w3.org/2000/svg" xmlns:xlink="http://www.w3.org/1999/xlink" x="0px" y="0px"
	 viewBox="0 0 113.39 113.39" style="enable-background:new 0 0 113.39 113.39;" xml:space="preserve">
<style type="text/css">
	.st0{fill:none;}
	.st1{fill-rule:evenodd;clip-rule:evenodd;fill:none;}
	.st2{clip-path:url(#SVGID_00000170265833219283732560000002144723573134745227_);}
	.st3{clip-path:url(#SVGID_00000013877290730314294820000008868731851806036665_);}
	.st4{fill:#FFFFFF;}
	.st5{fill:none;stroke:#000000;stroke-width:2;stroke-miterlimit:10;}
	.st6{font-family:'Arboria-Bold';}
	.st7{font-size:12px;}
	.st8{stroke:#000000;stroke-width:0.25;stroke-miterlimit:10;}
	.st9{fill:#FFFFFF;stroke:#000000;stroke-miterlimit:10;}
</style>
<g>
	<g>
		<path class="st4" d="M4.79,112.89c-2.37,0-4.3-1.93-4.3-4.3V4.8c0-2.37,1.93-4.3,4.3-4.3h103.78c2.37,0,4.3,1.93,4.3,4.3v103.78
			c0,2.37-1.93,4.3-4.3,4.3H4.79z"/>
		<path d="M108.56,1c2.1,0,3.8,1.71,3.8,3.8v103.78c0,2.1-1.71,3.8-3.8,3.8H4.79c-2.1,0-3.8-1.71-3.8-3.8V4.8
			c0-2.1,1.71-3.8,3.8-3.8H108.56 M108.56,0H4.79c-2.65,0-4.8,2.15-4.8,4.8v103.78c0,2.65,2.15,4.8,4.8,4.8h103.78
			c2.65,0,4.8-2.15,4.8-4.8V4.8C113.37,2.15,111.22,0,108.56,0L108.56,0z"/>
	</g>
	<path d="M113.68,85.32H-0.29v22.29c0,3,2.43,5.44,5.44,5.44h103.1c3,0,5.44-2.43,5.44-5.44V85.32z"/>
	<text transform="matrix(1 0 0 1 37.7094 102.7154)" class="st4 st6 st7">Fragile</text>
	<g>
		<path class="st8" d="M58.51,49.86c3.55-0.82,6.19-2.84,7.92-6.05c0.85-1.58,1.3-3.29,1.31-5.08c0.02-3.83,0.01-7.66,0.01-11.49
			c0-0.33-0.1-0.64-0.29-0.91c-0.34-0.47-0.8-0.69-1.38-0.69c-3.34,0-6.68,0-10.02,0c-0.42,0-0.84,0-1.25,0
			c-2.92,0-5.84,0.01-8.76-0.01c-0.96,0-1.7,0.76-1.69,1.7c0.01,3.65,0.01,7.31,0,10.96c0,0.39,0.02,0.79,0.05,1.18
			c0.05,0.61,0.15,1.21,0.3,1.8c0.61,2.38,1.84,4.37,3.69,5.98c1.56,1.36,3.37,2.24,5.4,2.63c0.1,0.02,0.14,0.05,0.14,0.17
			c0,4.56,0,9.11,0,13.67c0,0.13-0.04,0.15-0.16,0.15c-2.1,0-4.2,0-6.3,0c-0.16,0-0.32,0.02-0.47,0.05
			c-0.81,0.18-1.49,0.99-1.36,1.99c0.1,0.84,0.88,1.53,1.75,1.53c5.77,0,11.54,0,17.31,0c0.93,0,1.73-0.79,1.76-1.72
			c0.02-1.02-0.79-1.85-1.8-1.85c-2.11,0-4.23,0-6.34,0c-0.14,0-0.16-0.04-0.16-0.17c0-4.48,0-8.95,0-13.43
			c0-0.12-0.05-0.27,0.02-0.34C58.26,49.87,58.4,49.89,58.51,49.86z M48.48,45.12c-1.16-1.33-1.94-2.86-2.31-4.59
			c-0.16-0.75-0.22-1.51-0.22-2.29c0-3.62,0-7.23,0-10.85c0-0.14,0.03-0.17,0.17-0.17c2.19,0,4.38,0,6.58,0c0.05,0,0.09,0,0.16,0
			c-1.52,2.9-3.03,5.77-4.55,8.66c1.65,0,3.27,0,4.93,0c-0.16,0.32-0.3,0.61-0.45,0.91c-1.37,2.77-2.74,5.53-4.11,8.3
			C48.59,45.24,48.59,45.25,48.48,45.12z M56.6,48.7c0,5.53,0,11.06,0,16.59c0,0.13,0.03,0.17,0.17,0.17c2.6,0,5.2,0,7.8,0
			c0.04,0,0.08,0,0.11,0c0.13,0.01,0.22,0.1,0.22,0.22c0,0.11-0.09,0.2-0.22,0.21c-0.04,0-0.08,0-0.11,0c-5.67,0-11.34,0-17,0
			c-0.04,0-0.08,0-0.13,0c-0.12-0.01-0.21-0.09-0.21-0.2c-0.01-0.11,0.09-0.21,0.21-0.22c0.04,0,0.08,0,0.11,0c2.61,0,5.21,0,7.82,0
			c0.13,0,0.16-0.03,0.16-0.16c0-5.54,0-11.08,0-16.62c0-0.08,0.01-0.14-0.11-0.15c-0.69-0.08-1.37-0.17-2.04-0.36
			c-1.19-0.33-2.27-0.86-3.27-1.58c-0.07-0.05-0.08-0.08-0.04-0.16c2.01-4.06,4.02-8.11,6.03-12.17c0.03-0.06,0.06-0.13,0.1-0.21
			c-1.62,0-3.22,0-4.84,0c0.07-0.13,0.12-0.24,0.18-0.36c1.12-2.12,2.23-4.24,3.35-6.37c0.04-0.08,0.08-0.1,0.17-0.1
			c3.67,0,7.33,0,11,0c0.11,0,0.13,0.03,0.13,0.13c0,3.82,0.02,7.65-0.01,11.47c-0.01,1.6-0.46,3.11-1.26,4.5
			c-1.52,2.65-3.76,4.32-6.75,4.99c-0.48,0.11-0.97,0.15-1.45,0.22c-0.08,0.01-0.11,0.03-0.1,0.11C56.6,48.67,56.6,48.68,56.6,48.7z
			"/>
	</g>
</g>
</svg>
