<?xml version="1.0" encoding="utf-8"?>
<!-- Generator: Adobe Illustrator 27.8.1, SVG Export Plug-In . SVG Version: 6.00 Build 0)  -->
<svg version="1.1" id="Layer_1" xmlns="http://www.w3.org/2000/svg" xmlns:xlink="http://www.w3.org/1999/xlink" x="0px" y="0px"
	 viewBox="0 0 113.39 113.39" style="enable-background:new 0 0 113.39 113.39;" xml:space="preserve">
<style type="text/css">
	.st0{fill:none;}
	.st1{fill-rule:evenodd;clip-rule:evenodd;fill:none;}
	.st2{clip-path:url(#SVGID_00000086689973623762336890000004139330140692878723_);}
	.st3{clip-path:url(#SVGID_00000049930941402659491340000017627182174323348415_);}
	.st4{fill:#FFFFFF;}
	.st5{font-family:'Arboria-Bold';}
	.st6{font-size:12px;}
	.st7{fill:none;stroke:#000000;stroke-width:2;stroke-miterlimit:10;}
	.st8{stroke:#000000;stroke-width:0.25;stroke-miterlimit:10;}
	.st9{fill:#FFFFFF;stroke:#000000;stroke-miterlimit:10;}
</style>
<g>
	<g>
		<path class="st4" d="M4.79,112.89c-2.37,0-4.3-1.93-4.3-4.3V4.8c0-2.37,1.93-4.3,4.3-4.3h103.78c2.37,0,4.31,1.93,4.31,4.3v103.78
			c0,2.37-1.93,4.3-4.31,4.3H4.79z"/>
		<path d="M108.56,1c2.1,0,3.8,1.71,3.8,3.8v103.78c0,2.1-1.71,3.8-3.8,3.8H4.79c-2.1,0-3.8-1.71-3.8-3.8V4.8
			c0-2.1,1.71-3.8,3.8-3.8H108.56 M108.56,0H4.79c-2.65,0-4.8,2.15-4.8,4.8v103.78c0,2.65,2.15,4.8,4.8,4.8h103.78
			c2.65,0,4.8-2.15,4.8-4.8V4.8C113.37,2.15,111.22,0,108.56,0L108.56,0z"/>
	</g>
	<path d="M113.68,85.32H-0.29v22.29c0,3,2.43,5.44,5.44,5.44h103.1c3,0,5.44-2.43,5.44-5.44V85.32z"/>
	<text transform="matrix(1 0 0 1 21.4975 102.7154)" class="st4 st5 st6">Eco-Friendly</text>
	<g>
		<path class="st7" d="M61.17,46.54c0,10.69-8.28,19.36-8.28,19.36s-8.28-8.67-8.28-19.36s8.28-19.36,8.28-19.36
			S61.17,35.84,61.17,46.54z"/>
		<path class="st7" d="M74.33,60.4c-5.32,5.32-13.76,5.52-13.76,5.52s0.19-8.44,5.52-13.76s13.76-5.52,13.76-5.52
			S79.66,55.08,74.33,60.4z"/>
		<path class="st7" d="M36.17,62.01c3.77,3.77,9.74,3.91,9.74,3.91s-0.14-5.97-3.91-9.74s-9.74-3.91-9.74-3.91
			S32.4,58.24,36.17,62.01z"/>
	</g>
</g>
</svg>
