<?xml version="1.0" encoding="utf-8"?>
<!-- Generator: Adobe Illustrator 27.8.1, SVG Export Plug-In . SVG Version: 6.00 Build 0)  -->
<svg version="1.1" id="Layer_1" xmlns="http://www.w3.org/2000/svg" xmlns:xlink="http://www.w3.org/1999/xlink" x="0px" y="0px"
	 viewBox="0 0 113.39 113.39" style="enable-background:new 0 0 113.39 113.39;" xml:space="preserve">
<style type="text/css">
	.st0{fill:none;}
	.st1{fill-rule:evenodd;clip-rule:evenodd;fill:none;}
	.st2{clip-path:url(#SVGID_00000136384113240887349070000011878589243289241748_);}
	.st3{clip-path:url(#SVGID_00000179625416703363931500000011602847621114368642_);}
	.st4{fill:#FFFFFF;}
	.st5{font-family:'Arboria-Bold';}
	.st6{font-size:12px;}
	.st7{fill:none;stroke:#000000;stroke-width:2;stroke-miterlimit:10;}
	.st8{stroke:#000000;stroke-width:0.25;stroke-miterlimit:10;}
	.st9{fill:#FFFFFF;stroke:#000000;stroke-miterlimit:10;}
</style>
<g>
	<g>
		<path class="st4" d="M4.79,112.89c-2.37,0-4.3-1.93-4.3-4.3V4.8c0-2.37,1.93-4.3,4.3-4.3h103.78c2.37,0,4.31,1.93,4.31,4.3v103.78
			c0,2.37-1.93,4.3-4.31,4.3H4.79z"/>
		<path d="M108.56,1c2.1,0,3.8,1.71,3.8,3.8v103.78c0,2.1-1.71,3.8-3.8,3.8H4.79c-2.1,0-3.8-1.71-3.8-3.8V4.8
			c0-2.1,1.71-3.8,3.8-3.8H108.56 M108.56,0H4.79c-2.65,0-4.8,2.15-4.8,4.8v103.78c0,2.65,2.15,4.8,4.8,4.8h103.78
			c2.65,0,4.8-2.15,4.8-4.8V4.8C113.37,2.15,111.22,0,108.56,0L108.56,0z"/>
	</g>
	<g>
		<path d="M61.67,43.42c-0.04,2.63-1,4.89-2.81,6.78c-1.59,1.67-3.52,2.69-5.81,3c-0.26,0.03-0.35,0.12-0.35,0.4
			c0.03,1.21-0.02,2.42,0.06,3.62c0.13,2.06,0.99,3.77,2.49,5.16c1.5,1.39,3.27,2.07,5.31,2.12c0.86,0.02,1.37,0.82,1.05,1.59
			c-0.18,0.42-0.59,0.69-1.08,0.69c-5.23-0.01-9.28-4-9.95-8.43c-0.22-1.49-0.14-3-0.16-4.5c-0.01-0.49,0-0.98,0.01-1.47
			c0-0.94,0.39-1.35,1.33-1.38c3.64-0.12,6.66-2.61,7.47-6.17c0.15-0.65,0.2-1.32,0.2-1.99c0.01-4.65,0-9.29,0.01-13.94
			c0-0.26-0.06-0.35-0.32-0.32c-0.2,0.02-0.41,0-0.62,0c0.03-0.12,0.12-0.06,0.19-0.06c-3.47,0.01-6.95,0.01-10.43,0.01
			c-2.75,0-5.5,0-8.25,0c-0.15,0-0.3,0.03-0.43-0.05c-0.01-0.05,0.01-0.08,0.05-0.09c0.07-0.01,0.14,0,0.21,0
			c6.33,0,12.66,0,18.98,0c0.07,0.01,0.14-0.04,0.2-0.05c-0.07-0.01-0.14,0.08-0.22,0.05c-6.3,0-12.6,0-18.9,0
			c-0.11,0-0.22-0.02-0.32,0.02c-0.06,0.08,0.08,0.1,0.05,0.18c-0.4,0.02-0.4,0.02-0.4,0.44c0.01,3.8,0.02,7.6,0.02,11.4
			c0,1.1-0.04,2.2,0.02,3.3c0.2,3.5,3,6.6,6.46,7.16c0.42,0.07,0.84,0.1,1.26,0.12c0.85,0.04,1.24,0.45,1.24,1.3
			c0,1.63,0.04,3.26-0.04,4.89c-0.16,3.14-1.52,5.63-4,7.53c-1.77,1.35-3.76,2.02-5.98,2.05c-0.69,0.01-1.23-0.45-1.25-1.09
			c-0.02-0.68,0.46-1.17,1.18-1.19c3.72-0.11,6.74-2.54,7.6-6.1c0.14-0.58,0.21-1.18,0.21-1.78c0-1.03,0-2.06,0-3.09
			c0-0.19-0.05-0.26-0.25-0.3c-2-0.36-3.8-1.14-5.35-2.48c-1.65-1.43-2.61-3.28-3.13-5.37c-0.19-0.78-0.27-1.56-0.27-2.36
			c0-5.14,0-10.27,0-15.41c0-0.86,0.44-1.3,1.31-1.29c2.4,0.01,4.79,0.02,7.19,0.02c2.87,0,5.74,0,8.6,0c2.11,0,4.22-0.01,6.33-0.02
			c0.41,0,0.8,0.08,1.06,0.45c0.06,0.1,0.1,0.21,0.17,0.3c0.02,0.01,0.02,0.03,0.01,0.05c0.03,0.06-0.02,0.14,0.05,0.19
			c0,0.03,0.01,0.07,0.01,0.1c0.04,0.09,0.02,0.19,0.02,0.29c0,5.14,0,10.29,0,15.43C61.69,43.23,61.71,43.33,61.67,43.42z"/>
		<path d="M68.39,53.31c0-4.04,0-8.07,0-12.11c0-0.16,0.01-0.31,0.04-0.47c0.09-0.53,0.42-0.85,0.95-0.93
			c0.26-0.04,0.53-0.03,0.79-0.09c1.62-0.34,2.72-1.71,2.72-3.38c0-2.92,0-5.83,0-8.75c0-0.71,0.33-1.15,0.94-1.26
			c0.72-0.13,1.33,0.39,1.33,1.13c0,2.64,0,5.28,0,7.92c0,0.78,0.06,1.57-0.15,2.34c-0.56,2.05-1.85,3.41-3.86,4.08
			c-0.46,0.16-0.47,0.15-0.47,0.63c0,7.68,0,15.36,0,23.04c0,0.72-0.33,1.16-0.96,1.29c-0.57,0.11-1.16-0.28-1.29-0.85
			c-0.04-0.19-0.04-0.39-0.04-0.59C68.39,61.33,68.39,57.32,68.39,53.31z"/>
		<path d="M63.91,31.38c0-1.3,0-2.59,0-3.89c0-0.84,0.69-1.36,1.5-1.13c0.43,0.12,0.77,0.56,0.77,1.07
			c0.01,2.62,0.02,5.24,0.02,7.86c0,0.7-0.51,1.18-1.17,1.16c-0.66-0.02-1.11-0.49-1.11-1.19C63.9,33.97,63.91,32.67,63.91,31.38z"
			/>
		<path d="M70.68,31.39c0,1.31,0,2.61,0,3.92c0,0.5-0.23,0.86-0.7,1.06c-0.46,0.19-0.88,0.1-1.25-0.23
			c-0.24-0.22-0.34-0.51-0.34-0.82c0-2.61-0.01-5.22,0-7.83c0-0.72,0.47-1.16,1.17-1.16c0.65,0,1.11,0.48,1.12,1.18
			C70.69,28.8,70.68,30.09,70.68,31.39z"/>
		<path d="M39.62,28.6c-0.02-0.04-0.04-0.07-0.06-0.11l0,0c6.46,0,12.92,0,19.43,0c-0.19,0.12-0.37-0.01-0.51,0.11
			c-0.07,0-0.14,0.01-0.21,0.01c-6.15,0-12.3,0-18.45,0C39.76,28.61,39.69,28.6,39.62,28.6z"/>
		<path d="M61.67,43.42c0-0.09-0.01-0.18-0.01-0.26c0-5.16,0-10.32,0-15.48c0-0.09,0.01-0.18,0.01-0.26
			c0.01,0.1,0.02,0.19,0.02,0.29c0,5.14,0,10.29,0,15.43C61.7,43.23,61.68,43.33,61.67,43.42z"/>
		<path d="M61.6,27.08c-0.11-0.07-0.16-0.18-0.17-0.3C61.53,26.85,61.58,26.96,61.6,27.08z"/>
		<path d="M61.66,27.31c-0.16-0.03-0.07-0.11-0.05-0.19C61.67,27.18,61.67,27.24,61.66,27.31z"/>
		<path d="M58.95,28.37c-0.11,0.11-0.24,0.06-0.36,0.06c-6.22,0-12.44,0-18.66,0c-0.12,0-0.26-0.05-0.36,0.06c0,0,0,0,0,0
			c-0.08-0.02-0.11-0.07-0.02-0.09c0.1-0.03,0.21-0.02,0.32-0.02C46.23,28.37,52.59,28.37,58.95,28.37L58.95,28.37z"/>
		<path d="M37.15,43.81c-0.1-0.09-0.06-0.2-0.06-0.31c0-5.3,0-10.6,0-15.89c0-0.1-0.04-0.22,0.06-0.31c0.05,0.1,0.03,0.21,0.03,0.32
			c0,5.29,0,10.58,0,15.87C37.18,43.6,37.2,43.71,37.15,43.81z"/>
		<path d="M37.15,43.81c0-5.5,0-11,0-16.5c0.1,0.09,0.06,0.2,0.06,0.31c0,5.3,0,10.6,0,15.89C37.21,43.61,37.25,43.73,37.15,43.81z"
			/>
		<path d="M58.95,28.37c0.03-0.18,0.15-0.01,0.21-0.07C59.11,28.41,59.04,28.41,58.95,28.37C58.95,28.37,58.95,28.37,58.95,28.37z"
			/>
	</g>
	<path d="M113.68,85.32H-0.29v22.29c0,3,2.43,5.44,5.44,5.44h103.1c3,0,5.44-2.43,5.44-5.44V85.32z"/>
	<text transform="matrix(1 0 0 1 28.5423 102.7155)" class="st4 st5 st6">Food Safe</text>
</g>
</svg>
