<?xml version="1.0" encoding="utf-8"?>
<!-- Generator: Adobe Illustrator 27.8.1, SVG Export Plug-In . SVG Version: 6.00 Build 0)  -->
<svg version="1.1" id="Layer_1" xmlns="http://www.w3.org/2000/svg" xmlns:xlink="http://www.w3.org/1999/xlink" x="0px" y="0px"
	 viewBox="0 0 113.39 113.39" style="enable-background:new 0 0 113.39 113.39;" xml:space="preserve">
<style type="text/css">
	.st0{fill:none;}
	.st1{fill-rule:evenodd;clip-rule:evenodd;fill:none;}
	.st2{clip-path:url(#SVGID_00000121987388326264496910000000846646298714591116_);}
	.st3{clip-path:url(#SVGID_00000072258660786722997660000012350378446549437571_);}
	.st4{fill:#FFFFFF;}
	.st5{font-family:'Arboria-Bold';}
	.st6{font-size:12px;}
	.st7{fill:none;stroke:#000000;stroke-width:2;stroke-miterlimit:10;}
	.st8{stroke:#000000;stroke-width:0.25;stroke-miterlimit:10;}
	.st9{fill:#FFFFFF;stroke:#000000;stroke-miterlimit:10;}
</style>
<g>
	<g>
		<path class="st4" d="M4.79,112.89c-2.37,0-4.3-1.93-4.3-4.3V4.8c0-2.37,1.93-4.3,4.3-4.3h103.78c2.37,0,4.31,1.93,4.31,4.3v103.78
			c0,2.37-1.93,4.3-4.31,4.3H4.79z"/>
		<path d="M108.56,1c2.1,0,3.8,1.71,3.8,3.8v103.78c0,2.1-1.71,3.8-3.8,3.8H4.79c-2.1,0-3.8-1.71-3.8-3.8V4.8
			c0-2.1,1.71-3.8,3.8-3.8H108.56 M108.56,0H4.79c-2.65,0-4.8,2.15-4.8,4.8v103.78c0,2.65,2.15,4.8,4.8,4.8h103.78
			c2.65,0,4.8-2.15,4.8-4.8V4.8C113.37,2.15,111.22,0,108.56,0L108.56,0z"/>
	</g>
	<path d="M113.68,85.32H-0.29v22.29c0,3,2.43,5.44,5.44,5.44h103.1c3,0,5.44-2.43,5.44-5.44V85.32z"/>
	<text transform="matrix(1 0 0 1 45.803 102.7154)" class="st4 st5 st6">FSC</text>
	<path d="M56.67,66.32c-0.8,0-1.15-0.35-1.15-1.14l0-6.41L52,59.22l-0.42,0.06c-0.18,0.03-0.37,0.06-0.55,0.08
		c-0.06,0.01-0.12,0.01-0.18,0.01c-0.61,0-1.06-0.36-1.12-0.9c-0.02-0.2,0.07-0.45,0.24-0.66c0.12-0.15,0.39-0.4,0.82-0.44
		c1.38-0.12,2.77-0.3,4.12-0.48l1.42-0.18c0.07-0.01,0.14-0.01,0.2-0.01c0.61,0,0.96,0.37,0.96,1.02c0.01,1.27,0,2.54,0,3.81l0,2.83
		h5.74l0.04-0.81c0.01-0.12,0.02-0.25,0.02-0.38l0-5.37c0-0.8,0.33-1.14,1.09-1.14c0.93,0.03,1.72,0.4,2.56,0.79
		c1.22,0.58,2.47,1.08,3.84,1.1l0.15,0c2.46,0,4.31-1.15,5.33-3.34c1-2.14,0.67-4.3-0.96-6.26c-0.8-0.96-1.79-1.61-2.77-2.16
		c1.44-1.91,1.77-4.38,0.83-6.65c-0.95-2.31-2.98-3.89-5.28-4.16c0-0.01,0-0.03-0.01-0.04c-0.06-0.45-0.12-0.91-0.23-1.37
		c-0.8-3.38-3.94-5.83-7.47-5.83c-0.26,0-0.52,0.01-0.77,0.04c-2.2,0.23-4.04,1.32-5.78,3.44c-1.79,2.17-2.98,4.61-3.91,6.71
		C47.67,44,46.19,49.2,45.16,53.17c-0.48,1.83-0.92,3.67-1.35,5.51c-0.2,0.83-0.4,1.67-0.6,2.5l-0.08,0.3
		c-0.17,0.66-0.55,1.05-1.02,1.05c-0.31,0-0.66-0.17-0.97-0.49c-1.5-1.48-6.88-6.84-6.88-6.84l-0.56-0.54
		c-0.23-0.23-0.36-0.51-0.37-0.79c-0.01-0.27,0.1-0.52,0.3-0.73c0.21-0.21,0.44-0.32,0.67-0.32c0.26,0,0.53,0.13,0.78,0.38
		c1.16,1.15,2.32,2.31,3.48,3.46l1.62,1.61l1.26,1.2c0,0,1.44-5.49,1.78-6.76c1.2-4.52,2.54-9.31,4.44-13.88
		c1.39-3.33,2.74-5.7,4.38-7.69c1.77-2.14,3.59-3.42,5.74-4.01c0.85-0.24,1.72-0.35,2.59-0.35c4.2,0,7.88,2.71,9.17,6.73
		c0.18,0.57,0.51,0.93,1.09,1.2c3.06,1.41,4.75,3.74,5.19,7.12c0.15,1.2-0.01,2.45-0.52,3.94l-0.16,0.48l0.4,0.31
		c1.28,0.99,2.18,2.17,2.73,3.61c0.83,2.14,0.62,4.53-0.55,6.56c-1.18,2.03-3.15,3.39-5.42,3.73c-0.45,0.07-0.9,0.1-1.35,0.1
		c-1.41,0-2.78-0.33-4.21-1l-1.51-0.73c0,0,0,5.19,0,6.27c0,0.87-0.36,1.22-1.24,1.23l-3.67,0L56.67,66.32z"/>
</g>
</svg>
