<?xml version="1.0" encoding="utf-8"?>
<!-- Generator: Adobe Illustrator 27.8.1, SVG Export Plug-In . SVG Version: 6.00 Build 0)  -->
<svg version="1.1" id="Layer_1" xmlns="http://www.w3.org/2000/svg" xmlns:xlink="http://www.w3.org/1999/xlink" x="0px" y="0px"
	 viewBox="0 0 28.35 28.35" style="enable-background:new 0 0 28.35 28.35;" xml:space="preserve">
<style type="text/css">
	.st0{fill:none;}
	.st1{fill-rule:evenodd;clip-rule:evenodd;fill:none;}
	.st2{clip-path:url(#SVGID_00000114786409936625450630000000899601171291169714_);}
	.st3{clip-path:url(#SVGID_00000081617689962113526180000012235269049978559893_);}
	.st4{fill:#FFFFFF;}
	.st5{fill:none;stroke:#000000;stroke-width:2;stroke-miterlimit:10;}
	.st6{stroke:#000000;stroke-width:0.25;stroke-miterlimit:10;}
	.st7{fill:#FFFFFF;stroke:#000000;stroke-miterlimit:10;}
	.st8{fill:#F2F2F2;}
	.st9{fill:#E2E2E2;}
</style>
<g>
	<path class="st4" d="M17.69,12.58l-2.37,2.37V6.48c0-0.63-0.51-1.15-1.15-1.15h0c-0.63,0-1.15,0.51-1.15,1.15v8.47l-2.37-2.37
		c-0.45-0.45-1.18-0.45-1.62,0l0,0c-0.45,0.45-0.45,1.18,0,1.62l3.52,3.52l0.48,0.48l1.15,1.15l1.15-1.15l0.48-0.48l3.52-3.52
		c0.45-0.45,0.45-1.18,0-1.62l0,0C18.86,12.13,18.14,12.13,17.69,12.58z"/>
	
		<rect x="13.01" y="16.42" transform="matrix(6.123234e-17 -1 1 6.123234e-17 -7.682 36.0284)" class="st4" width="2.32" height="10.88"/>
</g>
</svg>
